<svg width="32" height="22" viewBox="0 0 32 22" fill="none" xmlns="http://www.w3.org/2000/svg">
<path d="M5.47248 6.24902C6.68139 2.92756 10.354 1.215 13.6754 2.42391V2.42391C14.5058 2.72614 14.9339 3.64429 14.6317 4.47465L9.70663 18.0062C8.95106 20.0821 6.65569 21.1525 4.57977 20.3969V20.3969C2.50386 19.6413 1.43351 17.346 2.18909 15.2701L5.47248 6.24902Z" fill="url(#paint0_linear_130_36)"/>
<path d="M17.3681 4.4747C17.0659 3.64434 17.494 2.72619 18.3244 2.42396V2.42396C21.6458 1.21505 25.3184 2.9276 26.5273 6.24906L29.8107 15.2701C30.5663 17.346 29.4959 19.6414 27.42 20.397V20.397C25.3441 21.1525 23.0488 20.0822 22.2932 18.0063L17.3681 4.4747Z" fill="url(#paint1_linear_130_36)"/>
<rect x="12" y="5" width="8" height="10" rx="4" fill="url(#paint2_linear_130_36)"/>
<defs>
<linearGradient id="paint0_linear_130_36" x1="11.4202" y1="1.60307" x2="4.57977" y2="20.3969" gradientUnits="userSpaceOnUse">
<stop stop-color="#C897D0"/>
<stop offset="1" stop-color="#967BB6"/>
</linearGradient>
<linearGradient id="paint1_linear_130_36" x1="20.5796" y1="1.60311" x2="27.42" y2="20.397" gradientUnits="userSpaceOnUse">
<stop stop-color="#C897D0"/>
<stop offset="1" stop-color="#967BB6"/>
</linearGradient>
<linearGradient id="paint2_linear_130_36" x1="16" y1="5" x2="16" y2="15" gradientUnits="userSpaceOnUse">
<stop stop-color="#C897D0"/>
<stop offset="1" stop-color="#967BB6"/>
</linearGradient>
</defs>
</svg>
