<svg width="124" height="132" viewBox="0 0 124 132" fill="none" xmlns="http://www.w3.org/2000/svg">
<path d="M7.43886 111.683C6.05626 110.441 5.36496 109.82 4.89282 109.189C2.95395 106.599 2.76645 103.095 4.41776 100.313C4.81987 99.635 5.44093 98.9437 6.68306 97.5611L71.6424 25.2554C74.6367 21.9225 76.1339 20.256 77.9262 19.5657C79.5027 18.9585 81.231 18.866 82.8634 19.3015C84.7191 19.7965 86.3856 21.2937 89.7185 24.288L95.0745 29.0998L21.5608 110.927C20.3187 112.31 19.6976 113.001 19.0668 113.473C16.4763 115.412 12.973 115.6 10.1904 113.948C9.51277 113.546 8.82147 112.925 7.43886 111.683V111.683Z" fill="#967BB6"/>
<path d="M28 103L101.514 21.1725C102.756 19.7899 103.377 19.0986 104.008 18.6265C106.598 16.6876 110.101 16.5001 112.884 18.1514C113.562 18.5535 114.253 19.1746 115.636 20.4167V20.4167C117.018 21.6588 117.71 22.2799 118.182 22.9107C120.121 25.5012 120.308 29.0045 118.657 31.7871C118.255 32.4647 117.634 33.156 116.391 34.5386L51.432 106.844C48.4378 110.177 46.9406 111.844 45.1483 112.534C43.5718 113.141 41.8435 113.234 40.2111 112.798C38.3554 112.303 36.6889 110.806 33.356 107.812L28 103Z" fill="#C897D0"/>
</svg>
