<svg width="200" height="29" viewBox="0 0 200 29" fill="none" xmlns="http://www.w3.org/2000/svg">
<path d="M35.152 0.928002C38.48 0.928002 41.12 1.936 43.072 3.952C45.056 5.968 46.048 8.768 46.048 12.352V28H37.888V13.456C37.888 11.728 37.424 10.4 36.496 9.472C35.6 8.512 34.352 8.032 32.752 8.032C31.152 8.032 29.888 8.512 28.96 9.472C28.064 10.4 27.616 11.728 27.616 13.456V28H19.456V13.456C19.456 11.728 18.992 10.4 18.064 9.472C17.168 8.512 15.92 8.032 14.32 8.032C12.72 8.032 11.456 8.512 10.528 9.472C9.63201 10.4 9.18401 11.728 9.18401 13.456V28H0.976013V1.216H9.18401V4.576C10.016 3.456 11.104 2.576 12.448 1.936C13.792 1.264 15.312 0.928002 17.008 0.928002C19.024 0.928002 20.816 1.36 22.384 2.224C23.984 3.088 25.232 4.32 26.128 5.92C27.056 4.448 28.32 3.248 29.92 2.32C31.52 1.392 33.264 0.928002 35.152 0.928002Z" fill="url(#paint0_linear_66_223)"/>
<path d="M50.1565 14.56C50.1565 11.808 50.6685 9.392 51.6925 7.312C52.7485 5.232 54.1725 3.632 55.9645 2.512C57.7565 1.392 59.7565 0.832001 61.9645 0.832001C63.8525 0.832001 65.5005 1.216 66.9085 1.984C68.3485 2.752 69.4525 3.76 70.2205 5.008V1.216H78.4285V28H70.2205V24.208C69.4205 25.456 68.3005 26.464 66.8605 27.232C65.4525 28 63.8045 28.384 61.9165 28.384C59.7405 28.384 57.7565 27.824 55.9645 26.704C54.1725 25.552 52.7485 23.936 51.6925 21.856C50.6685 19.744 50.1565 17.312 50.1565 14.56ZM70.2205 14.608C70.2205 12.56 69.6445 10.944 68.4925 9.76C67.3725 8.576 65.9965 7.984 64.3645 7.984C62.7325 7.984 61.3405 8.576 60.1885 9.76C59.0685 10.912 58.5085 12.512 58.5085 14.56C58.5085 16.608 59.0685 18.24 60.1885 19.456C61.3405 20.64 62.7325 21.232 64.3645 21.232C65.9965 21.232 67.3725 20.64 68.4925 19.456C69.6445 18.272 70.2205 16.656 70.2205 14.608Z" fill="url(#paint1_linear_66_223)"/>
<path d="M92.5746 5.68C93.5346 4.208 94.7346 3.056 96.1746 2.224C97.6146 1.36 99.2146 0.928002 100.975 0.928002V9.616H98.7186C96.6706 9.616 95.1346 10.064 94.1106 10.96C93.0866 11.824 92.5746 13.36 92.5746 15.568V28H84.3666V1.216H92.5746V5.68Z" fill="url(#paint2_linear_66_223)"/>
<path d="M103.266 14.608C103.266 11.824 103.826 9.392 104.946 7.312C106.098 5.232 107.682 3.632 109.698 2.512C111.746 1.392 114.082 0.832001 116.706 0.832001C120.066 0.832001 122.866 1.712 125.106 3.472C127.378 5.232 128.866 7.712 129.57 10.912H120.834C120.098 8.864 118.674 7.84 116.562 7.84C115.058 7.84 113.858 8.432 112.962 9.616C112.066 10.768 111.618 12.432 111.618 14.608C111.618 16.784 112.066 18.464 112.962 19.648C113.858 20.8 115.058 21.376 116.562 21.376C118.674 21.376 120.098 20.352 120.834 18.304H129.57C128.866 21.44 127.378 23.904 125.106 25.696C122.834 27.488 120.034 28.384 116.706 28.384C114.082 28.384 111.746 27.824 109.698 26.704C107.682 25.584 106.098 23.984 104.946 21.904C103.826 19.824 103.266 17.392 103.266 14.608Z" fill="url(#paint3_linear_66_223)"/>
<path d="M146.152 28.384C143.528 28.384 141.16 27.824 139.048 26.704C136.968 25.584 135.32 23.984 134.104 21.904C132.92 19.824 132.328 17.392 132.328 14.608C132.328 11.856 132.936 9.44 134.152 7.36C135.368 5.248 137.032 3.632 139.144 2.512C141.256 1.392 143.624 0.832001 146.248 0.832001C148.872 0.832001 151.24 1.392 153.352 2.512C155.464 3.632 157.128 5.248 158.344 7.36C159.56 9.44 160.168 11.856 160.168 14.608C160.168 17.36 159.544 19.792 158.296 21.904C157.08 23.984 155.4 25.584 153.256 26.704C151.144 27.824 148.776 28.384 146.152 28.384ZM146.152 21.28C147.72 21.28 149.048 20.704 150.136 19.552C151.256 18.4 151.816 16.752 151.816 14.608C151.816 12.464 151.272 10.816 150.184 9.664C149.128 8.512 147.816 7.936 146.248 7.936C144.648 7.936 143.32 8.512 142.264 9.664C141.208 10.784 140.68 12.432 140.68 14.608C140.68 16.752 141.192 18.4 142.216 19.552C143.272 20.704 144.584 21.28 146.152 21.28Z" fill="url(#paint4_linear_66_223)"/>
<path d="M175.419 28.384C173.083 28.384 171.003 27.984 169.179 27.184C167.355 26.384 165.915 25.296 164.859 23.92C163.803 22.512 163.211 20.944 163.083 19.216H171.195C171.291 20.144 171.723 20.896 172.491 21.472C173.259 22.048 174.203 22.336 175.323 22.336C176.347 22.336 177.131 22.144 177.675 21.76C178.251 21.344 178.539 20.816 178.539 20.176C178.539 19.408 178.139 18.848 177.339 18.496C176.539 18.112 175.243 17.696 173.451 17.248C171.531 16.8 169.931 16.336 168.651 15.856C167.371 15.344 166.267 14.56 165.339 13.504C164.411 12.416 163.947 10.96 163.947 9.136C163.947 7.6 164.363 6.208 165.195 4.96C166.059 3.68 167.307 2.672 168.939 1.936C170.603 1.2 172.571 0.832001 174.843 0.832001C178.203 0.832001 180.843 1.664 182.763 3.328C184.715 4.992 185.835 7.2 186.123 9.952H178.539C178.411 9.024 177.995 8.288 177.291 7.744C176.619 7.2 175.723 6.928 174.603 6.928C173.643 6.928 172.907 7.12 172.395 7.504C171.883 7.856 171.627 8.352 171.627 8.992C171.627 9.76 172.027 10.336 172.827 10.72C173.659 11.104 174.939 11.488 176.667 11.872C178.651 12.384 180.267 12.896 181.515 13.408C182.763 13.888 183.851 14.688 184.779 15.808C185.739 16.896 186.235 18.368 186.267 20.224C186.267 21.792 185.819 23.2 184.923 24.448C184.059 25.664 182.795 26.624 181.131 27.328C179.499 28.032 177.595 28.384 175.419 28.384Z" fill="url(#paint5_linear_66_223)"/>
<path d="M195.129 28.384C193.689 28.384 192.505 27.968 191.577 27.136C190.681 26.272 190.233 25.216 190.233 23.968C190.233 22.688 190.681 21.616 191.577 20.752C192.505 19.888 193.689 19.456 195.129 19.456C196.537 19.456 197.689 19.888 198.585 20.752C199.513 21.616 199.977 22.688 199.977 23.968C199.977 25.216 199.513 26.272 198.585 27.136C197.689 27.968 196.537 28.384 195.129 28.384Z" fill="url(#paint6_linear_66_223)"/>
<path d="M35.152 0.928002C38.48 0.928002 41.12 1.936 43.072 3.952C45.056 5.968 46.048 8.768 46.048 12.352V28H37.888V13.456C37.888 11.728 37.424 10.4 36.496 9.472C35.6 8.512 34.352 8.032 32.752 8.032C31.152 8.032 29.888 8.512 28.96 9.472C28.064 10.4 27.616 11.728 27.616 13.456V28H19.456V13.456C19.456 11.728 18.992 10.4 18.064 9.472C17.168 8.512 15.92 8.032 14.32 8.032C12.72 8.032 11.456 8.512 10.528 9.472C9.63201 10.4 9.18401 11.728 9.18401 13.456V28H0.976013V1.216H9.18401V4.576C10.016 3.456 11.104 2.576 12.448 1.936C13.792 1.264 15.312 0.928002 17.008 0.928002C19.024 0.928002 20.816 1.36 22.384 2.224C23.984 3.088 25.232 4.32 26.128 5.92C27.056 4.448 28.32 3.248 29.92 2.32C31.52 1.392 33.264 0.928002 35.152 0.928002Z" fill="#141414"/>
<path d="M50.1565 14.56C50.1565 11.808 50.6685 9.392 51.6925 7.312C52.7485 5.232 54.1725 3.632 55.9645 2.512C57.7565 1.392 59.7565 0.832001 61.9645 0.832001C63.8525 0.832001 65.5005 1.216 66.9085 1.984C68.3485 2.752 69.4525 3.76 70.2205 5.008V1.216H78.4285V28H70.2205V24.208C69.4205 25.456 68.3005 26.464 66.8605 27.232C65.4525 28 63.8045 28.384 61.9165 28.384C59.7405 28.384 57.7565 27.824 55.9645 26.704C54.1725 25.552 52.7485 23.936 51.6925 21.856C50.6685 19.744 50.1565 17.312 50.1565 14.56ZM70.2205 14.608C70.2205 12.56 69.6445 10.944 68.4925 9.76C67.3725 8.576 65.9965 7.984 64.3645 7.984C62.7325 7.984 61.3405 8.576 60.1885 9.76C59.0685 10.912 58.5085 12.512 58.5085 14.56C58.5085 16.608 59.0685 18.24 60.1885 19.456C61.3405 20.64 62.7325 21.232 64.3645 21.232C65.9965 21.232 67.3725 20.64 68.4925 19.456C69.6445 18.272 70.2205 16.656 70.2205 14.608Z" fill="#141414"/>
<path d="M92.5746 5.68C93.5346 4.208 94.7346 3.056 96.1746 2.224C97.6146 1.36 99.2146 0.928002 100.975 0.928002V9.616H98.7186C96.6706 9.616 95.1346 10.064 94.1106 10.96C93.0866 11.824 92.5746 13.36 92.5746 15.568V28H84.3666V1.216H92.5746V5.68Z" fill="#141414"/>
<path d="M103.266 14.608C103.266 11.824 103.826 9.392 104.946 7.312C106.098 5.232 107.682 3.632 109.698 2.512C111.746 1.392 114.082 0.832001 116.706 0.832001C120.066 0.832001 122.866 1.712 125.106 3.472C127.378 5.232 128.866 7.712 129.57 10.912H120.834C120.098 8.864 118.674 7.84 116.562 7.84C115.058 7.84 113.858 8.432 112.962 9.616C112.066 10.768 111.618 12.432 111.618 14.608C111.618 16.784 112.066 18.464 112.962 19.648C113.858 20.8 115.058 21.376 116.562 21.376C118.674 21.376 120.098 20.352 120.834 18.304H129.57C128.866 21.44 127.378 23.904 125.106 25.696C122.834 27.488 120.034 28.384 116.706 28.384C114.082 28.384 111.746 27.824 109.698 26.704C107.682 25.584 106.098 23.984 104.946 21.904C103.826 19.824 103.266 17.392 103.266 14.608Z" fill="#141414"/>
<path d="M146.152 28.384C143.528 28.384 141.16 27.824 139.048 26.704C136.968 25.584 135.32 23.984 134.104 21.904C132.92 19.824 132.328 17.392 132.328 14.608C132.328 11.856 132.936 9.44 134.152 7.36C135.368 5.248 137.032 3.632 139.144 2.512C141.256 1.392 143.624 0.832001 146.248 0.832001C148.872 0.832001 151.24 1.392 153.352 2.512C155.464 3.632 157.128 5.248 158.344 7.36C159.56 9.44 160.168 11.856 160.168 14.608C160.168 17.36 159.544 19.792 158.296 21.904C157.08 23.984 155.4 25.584 153.256 26.704C151.144 27.824 148.776 28.384 146.152 28.384ZM146.152 21.28C147.72 21.28 149.048 20.704 150.136 19.552C151.256 18.4 151.816 16.752 151.816 14.608C151.816 12.464 151.272 10.816 150.184 9.664C149.128 8.512 147.816 7.936 146.248 7.936C144.648 7.936 143.32 8.512 142.264 9.664C141.208 10.784 140.68 12.432 140.68 14.608C140.68 16.752 141.192 18.4 142.216 19.552C143.272 20.704 144.584 21.28 146.152 21.28Z" fill="#141414"/>
<path d="M175.419 28.384C173.083 28.384 171.003 27.984 169.179 27.184C167.355 26.384 165.915 25.296 164.859 23.92C163.803 22.512 163.211 20.944 163.083 19.216H171.195C171.291 20.144 171.723 20.896 172.491 21.472C173.259 22.048 174.203 22.336 175.323 22.336C176.347 22.336 177.131 22.144 177.675 21.76C178.251 21.344 178.539 20.816 178.539 20.176C178.539 19.408 178.139 18.848 177.339 18.496C176.539 18.112 175.243 17.696 173.451 17.248C171.531 16.8 169.931 16.336 168.651 15.856C167.371 15.344 166.267 14.56 165.339 13.504C164.411 12.416 163.947 10.96 163.947 9.136C163.947 7.6 164.363 6.208 165.195 4.96C166.059 3.68 167.307 2.672 168.939 1.936C170.603 1.2 172.571 0.832001 174.843 0.832001C178.203 0.832001 180.843 1.664 182.763 3.328C184.715 4.992 185.835 7.2 186.123 9.952H178.539C178.411 9.024 177.995 8.288 177.291 7.744C176.619 7.2 175.723 6.928 174.603 6.928C173.643 6.928 172.907 7.12 172.395 7.504C171.883 7.856 171.627 8.352 171.627 8.992C171.627 9.76 172.027 10.336 172.827 10.72C173.659 11.104 174.939 11.488 176.667 11.872C178.651 12.384 180.267 12.896 181.515 13.408C182.763 13.888 183.851 14.688 184.779 15.808C185.739 16.896 186.235 18.368 186.267 20.224C186.267 21.792 185.819 23.2 184.923 24.448C184.059 25.664 182.795 26.624 181.131 27.328C179.499 28.032 177.595 28.384 175.419 28.384Z" fill="#141414"/>
<defs>
<linearGradient id="paint0_linear_66_223" x1="100.476" y1="0.832001" x2="100.476" y2="28.384" gradientUnits="userSpaceOnUse">
<stop stop-color="#C897D0"/>
<stop offset="1" stop-color="#967BB6"/>
</linearGradient>
<linearGradient id="paint1_linear_66_223" x1="100.476" y1="0.832001" x2="100.476" y2="28.384" gradientUnits="userSpaceOnUse">
<stop stop-color="#C897D0"/>
<stop offset="1" stop-color="#967BB6"/>
</linearGradient>
<linearGradient id="paint2_linear_66_223" x1="100.476" y1="0.832001" x2="100.476" y2="28.384" gradientUnits="userSpaceOnUse">
<stop stop-color="#C897D0"/>
<stop offset="1" stop-color="#967BB6"/>
</linearGradient>
<linearGradient id="paint3_linear_66_223" x1="100.476" y1="0.832001" x2="100.476" y2="28.384" gradientUnits="userSpaceOnUse">
<stop stop-color="#C897D0"/>
<stop offset="1" stop-color="#967BB6"/>
</linearGradient>
<linearGradient id="paint4_linear_66_223" x1="100.476" y1="0.832001" x2="100.476" y2="28.384" gradientUnits="userSpaceOnUse">
<stop stop-color="#C897D0"/>
<stop offset="1" stop-color="#967BB6"/>
</linearGradient>
<linearGradient id="paint5_linear_66_223" x1="100.476" y1="0.832001" x2="100.476" y2="28.384" gradientUnits="userSpaceOnUse">
<stop stop-color="#C897D0"/>
<stop offset="1" stop-color="#967BB6"/>
</linearGradient>
<linearGradient id="paint6_linear_66_223" x1="100.476" y1="0.832001" x2="100.476" y2="28.384" gradientUnits="userSpaceOnUse">
<stop stop-color="#C897D0"/>
<stop offset="1" stop-color="#967BB6"/>
</linearGradient>
</defs>
</svg>
